<?xml version="1.0" standalone="no"?>
<!DOCTYPE svg PUBLIC "-//W3C//DTD SVG 20010904//EN"
 "http://www.w3.org/TR/2001/REC-SVG-20010904/DTD/svg10.dtd">
<svg version="1.0" xmlns="http://www.w3.org/2000/svg"
 width="1310.000000pt" height="1310.000000pt" viewBox="0 0 1310.000000 1310.000000"
 preserveAspectRatio="xMidYMid meet">
<metadata>
Created by potrace 1.14, written by Peter Selinger 2001-2017
</metadata>
<g transform="translate(0.000000,1310.000000) scale(0.100000,-0.100000)"
fill="#000000" stroke="none">
<path d="M0 9891 c0 -3048 1 -3209 18 -3212 9 -3 103 -2 207 1 105 3 208 2
230 -2 22 -4 132 -12 245 -18 113 -6 246 -17 295 -24 67 -10 92 -11 98 -2 6 8
10 8 14 -1 3 -9 22 -11 65 -6 45 5 59 3 54 -5 -4 -7 -14 -12 -22 -12 -8 0 -24
-10 -36 -22 -18 -18 -36 -23 -82 -25 -33 -1 -66 3 -73 9 -8 7 -13 7 -13 0 0
-8 -51 -26 -70 -24 -334 20 -333 20 -356 12 -11 -5 -39 -5 -61 -1 -23 5 -48 4
-56 -1 -9 -4 -18 -4 -21 1 -3 4 -45 6 -93 3 -49 -2 -95 -4 -103 -4 -8 1 -42 3
-76 5 -33 2 -65 7 -71 10 -7 4 -14 3 -17 -2 -4 -5 -22 -7 -41 -4 l-35 6 0 -83
0 -83 58 7 c31 4 64 7 72 6 8 -1 36 -1 63 0 26 0 47 -4 47 -10 0 -16 37 -12
44 6 3 8 10 13 16 9 5 -3 28 4 49 17 32 18 44 21 58 12 10 -6 75 -12 148 -13
157 -2 215 -9 222 -27 3 -8 11 -14 19 -14 8 0 14 -4 14 -10 0 -5 -4 -10 -10
-10 -5 0 -10 -5 -10 -11 0 -5 4 -7 10 -4 6 3 10 -2 10 -12 0 -23 -34 -28 -50
-7 -7 8 -9 25 -6 40 6 21 4 25 -11 22 -23 -4 -31 -77 -11 -93 8 -5 14 -23 14
-40 -1 -20 4 -30 14 -30 8 0 20 -4 26 -8 15 -9 24 -56 13 -63 -5 -3 -9 2 -9
11 0 12 -6 15 -20 10 -13 -4 -28 2 -47 20 -28 25 -60 30 -55 6 2 -8 -3 -9 -16
-2 -11 6 -24 6 -35 0 -23 -13 -22 -29 3 -29 11 0 20 -4 20 -8 0 -5 -10 -8 -22
-8 -13 1 -24 -6 -26 -15 -2 -14 9 -18 60 -22 35 -3 115 -13 178 -22 63 -9 126
-17 140 -19 79 -10 130 -18 130 -23 0 -3 -9 -17 -19 -32 -17 -24 -27 -28 -78
-30 -59 -2 -105 -23 -144 -65 l-20 -21 33 -8 c18 -5 50 -8 70 -8 20 1 56 -3
80 -8 29 -7 46 -6 55 1 9 7 17 7 25 0 10 -8 13 -2 14 26 1 45 22 98 51 130 12
13 21 27 21 31 -4 13 23 51 37 51 8 0 15 5 15 10 0 16 40 12 46 -5 4 -8 14
-15 24 -15 18 0 50 -30 50 -46 0 -5 17 -18 37 -29 21 -10 45 -24 53 -31 8 -6
34 -14 58 -17 48 -6 84 -31 75 -53 -3 -8 -14 -14 -24 -14 -10 0 -19 -4 -19
-10 0 -5 -9 -10 -20 -10 -24 0 -70 21 -70 32 0 18 -42 7 -47 -13 -4 -15 -12
-20 -29 -16 -31 6 -66 -29 -44 -43 8 -5 22 -7 31 -4 18 5 89 -24 89 -37 0 -7
-39 -5 -105 6 -66 11 -329 12 -344 1 -9 -7 -17 -6 -25 5 -9 13 -15 13 -36 2
-33 -17 -65 -16 -80 2 -18 22 -51 19 -57 -5 -3 -11 -9 -17 -15 -14 -20 12 -40
-19 -33 -53 4 -23 1 -38 -9 -48 -20 -20 -29 -19 -21 4 7 24 -20 49 -29 26 -3
-9 -1 -25 4 -36 8 -14 7 -31 -3 -61 -17 -49 -34 -59 -45 -27 -8 20 -10 18 -16
-19 -3 -23 -11 -42 -16 -42 -6 0 -5 -9 2 -21 11 -17 10 -22 -4 -30 -10 -6 -18
-16 -18 -23 0 -12 -20 -26 -36 -26 -2 0 -4 10 -4 23 0 29 -78 77 -91 56 -10
-17 -11 -41 -3 -64 5 -11 9 -13 14 -5 5 8 10 7 19 -4 10 -12 7 -18 -20 -31
-26 -14 -37 -15 -57 -5 -22 10 -28 9 -39 -6 -7 -10 -9 -22 -4 -28 21 -28 18
-57 -10 -96 -16 -22 -29 -51 -29 -64 0 -13 -6 -26 -14 -29 -12 -5 -13 1 -9 29
8 49 -22 47 -32 -2 l-6 -36 -23 21 c-12 11 -26 21 -31 21 -4 0 -14 8 -21 17
-13 17 -15 17 -29 -1 -10 -14 -11 -24 -4 -38 8 -15 4 -24 -20 -48 -29 -30 -51
-38 -51 -21 0 5 6 12 12 15 9 3 7 9 -6 20 -11 9 -24 16 -28 16 -14 0 -23 -33
-10 -38 7 -2 12 -12 12 -22 0 -10 4 -22 10 -25 5 -3 9 -16 9 -28 0 -12 2 -32
6 -44 6 -17 3 -23 -9 -23 -9 0 -16 7 -16 15 0 8 -8 19 -19 24 -15 8 -20 6 -30
-15 -6 -14 -16 -22 -21 -19 -6 3 -10 -5 -10 -19 0 -14 8 -29 18 -35 16 -9 16
-11 -1 -23 -14 -11 -18 -25 -15 -63 3 -43 6 -50 26 -53 12 -2 22 0 21 5 -6 37
25 47 35 11 9 -34 8 -38 -10 -31 -9 3 -20 0 -25 -8 -7 -11 -12 -12 -28 -2
l-21 13 0 -2420 0 -2420 1047 0 1047 0 73 36 c86 41 226 84 253 77 24 -6 31
-44 16 -90 l-7 -23 143 0 143 0 2 45 c1 25 -2 43 -6 40 -8 -4 -22 165 -15 174
2 2 10 -2 19 -9 13 -11 15 -8 15 18 0 17 -6 37 -14 44 -11 12 -11 18 5 37 16
19 17 26 7 39 -10 12 -10 16 0 19 6 3 12 11 12 19 0 7 9 19 20 26 11 7 20 17
20 22 0 4 -7 3 -15 -4 -9 -8 -15 -9 -15 -2 0 6 5 14 10 17 16 10 1 25 -45 45
-24 10 -63 39 -86 64 -31 33 -46 42 -55 35 -8 -7 -14 -7 -19 1 -8 13 -45 13
-45 0 0 -5 -6 -10 -14 -10 -15 0 -28 37 -32 90 -2 19 -6 53 -10 74 -5 31 -3
42 11 52 10 8 15 20 11 29 -10 27 2 34 37 23 17 -5 52 -9 75 -8 24 0 50 -4 58
-11 8 -6 24 -9 36 -6 12 4 27 2 32 -2 6 -5 76 -23 156 -40 174 -39 297 -92
328 -144 42 -70 51 -147 17 -147 -7 0 -15 -6 -18 -12 -3 -10 -11 -10 -36 -1
-17 6 -49 10 -71 8 -22 -2 -61 2 -87 10 -33 10 -49 11 -54 4 -5 -8 -18 -7 -44
2 -33 12 -38 12 -47 -5 -5 -10 -24 -24 -42 -31 -38 -16 -31 -19 94 -35 52 -6
99 -16 105 -21 5 -5 17 -9 27 -9 27 0 78 -41 78 -62 0 -10 6 -18 14 -18 8 0
16 -16 19 -42 11 -71 27 -116 52 -147 14 -16 25 -34 25 -41 0 -17 55 -67 69
-62 6 2 11 0 10 -5 -1 -4 1 -20 5 -35 l8 -28 95 0 c85 0 100 3 144 28 27 15
49 30 49 34 0 4 15 14 34 22 29 12 85 56 71 56 -2 0 6 10 18 23 28 28 36 17
38 -52 2 -44 6 -55 29 -71 25 -18 65 -21 88 -6 15 9 51 18 80 20 27 1 30 16 2
16 -17 0 -19 4 -14 28 9 36 9 33 0 69 -4 18 -13 31 -19 30 -12 -2 -14 4 -16
54 0 15 -7 27 -13 26 -39 -1 -58 5 -58 18 0 8 -4 15 -10 15 -14 0 -40 67 -40
102 0 16 -7 36 -15 44 -8 8 -12 21 -9 29 4 8 -9 32 -29 55 -35 41 -53 94 -42
122 4 9 -1 18 -9 21 -19 8 -23 87 -4 87 9 0 9 3 0 12 -7 7 -12 22 -12 35 0 13
-4 23 -10 23 -5 0 -10 4 -10 10 0 5 8 7 18 4 12 -4 11 -1 -6 13 -15 13 -23 30
-24 56 -1 20 -5 37 -10 37 -5 0 -8 15 -7 32 2 18 -3 43 -9 55 -7 12 -12 29
-12 37 0 9 -4 16 -9 16 -9 0 -33 51 -36 78 -1 9 -4 24 -7 32 -28 74 -30 125
-5 141 5 4 6 12 2 18 -5 9 -10 9 -21 0 -11 -9 -14 -9 -14 1 0 6 -9 23 -20 37
-11 14 -20 36 -20 49 0 12 -4 25 -9 28 -5 3 -8 27 -8 53 1 36 -6 58 -25 88
-16 25 -26 54 -26 75 0 21 -13 61 -32 96 -17 34 -34 81 -36 105 -6 52 -24 120
-36 133 -4 6 -8 16 -8 23 0 6 -11 29 -26 50 -16 24 -23 45 -20 59 4 13 0 29
-7 36 -8 7 -12 19 -9 27 6 18 -19 92 -29 85 -4 -2 -11 12 -15 33 -4 21 -11 44
-17 51 -7 9 -6 20 1 37 7 14 8 25 3 25 -5 0 -12 -6 -14 -12 -4 -10 -8 -10 -16
2 -11 16 -5 33 10 25 5 -4 9 1 9 9 0 9 -7 16 -16 16 -9 0 -21 13 -27 30 -6 16
-15 30 -19 30 -4 0 -8 5 -8 10 0 6 -13 23 -29 38 -28 26 -50 92 -31 92 17 0
11 36 -10 60 -11 12 -18 26 -15 30 2 4 -4 15 -15 25 -11 10 -20 31 -20 47 0
26 -6 44 -32 88 -40 72 -42 79 -25 98 11 11 13 22 7 32 -5 9 -5 17 0 20 10 6
-55 80 -71 80 -5 0 -9 9 -9 21 0 16 4 19 20 14 16 -5 20 -2 20 15 0 12 -3 19
-8 16 -14 -8 -68 136 -57 154 3 5 1 18 -4 27 -6 10 -11 14 -11 8 0 -17 -30 46
-51 108 -11 32 -17 67 -14 76 3 10 -6 34 -20 56 -25 36 -36 82 -35 150 0 44
-19 94 -39 105 -17 8 -29 35 -59 131 -7 19 -12 45 -12 58 0 12 -4 19 -10 16
-5 -3 -10 1 -10 9 0 10 6 13 15 10 8 -4 15 -3 15 0 0 4 -11 11 -24 16 -14 5
-32 28 -46 57 -32 70 -38 85 -46 118 -4 17 -8 32 -9 35 -1 3 -5 19 -9 35 -9
35 -35 87 -50 97 -6 4 -5 12 3 22 7 8 10 24 6 35 -4 14 0 21 15 26 22 7 26 26
10 56 -8 15 -17 18 -37 13 -22 -6 -32 0 -64 37 -41 47 -45 54 -30 64 6 3 20
-8 32 -24 12 -17 26 -28 32 -24 5 3 13 -1 18 -8 4 -7 11 -10 16 -6 4 4 2 17
-5 27 -7 11 -12 37 -12 57 -1 36 -1 37 -16 18 -13 -17 -16 -18 -25 -5 -5 8 -6
24 -3 35 8 27 8 61 -1 83 -5 9 -9 22 -10 27 0 6 -5 19 -10 29 -6 13 -3 22 8
31 9 7 14 15 10 18 -3 4 4 7 16 7 12 0 19 -4 16 -10 -3 -6 4 -23 16 -38 l22
-27 -6 25 c-4 14 -7 35 -7 48 0 13 -6 22 -15 22 -19 0 -19 16 0 24 8 3 15 1
15 -4 0 -5 6 -7 14 -4 7 3 16 -2 20 -11 5 -13 10 -14 28 -4 15 8 49 10 107 5
89 -6 146 -21 176 -46 10 -8 35 -16 57 -17 22 -2 59 -9 83 -18 24 -8 54 -17
67 -20 13 -2 52 -12 88 -20 36 -9 78 -18 95 -21 16 -3 41 -12 55 -19 20 -10
66 -25 90 -29 17 -3 107 -40 115 -47 5 -5 19 -9 32 -9 12 0 37 -7 55 -15 18
-8 52 -19 76 -25 23 -6 42 -15 42 -21 0 -6 4 -7 10 -4 5 3 20 -1 32 -9 13 -7
34 -17 48 -21 14 -4 37 -16 51 -26 15 -10 36 -20 48 -22 12 -2 27 -9 33 -15 7
-7 20 -12 30 -12 10 0 18 -4 18 -10 0 -5 11 -10 24 -10 13 0 29 -7 36 -15 7
-8 22 -15 33 -15 30 0 87 -67 87 -101 0 -15 7 -34 15 -43 10 -10 15 -36 15
-83 1 -37 5 -88 11 -113 6 -25 13 -79 17 -120 4 -41 13 -84 19 -95 15 -27 34
-131 27 -150 -4 -8 1 -32 9 -53 14 -35 21 -74 33 -187 6 -61 23 -117 38 -127
7 -5 8 -11 1 -15 -5 -5 -11 -19 -13 -32 -1 -17 2 -22 13 -17 21 8 19 -11 -2
-23 -17 -9 -16 -11 5 -33 12 -14 22 -34 22 -46 0 -12 9 -38 19 -59 11 -21 22
-58 24 -83 3 -25 8 -52 11 -60 3 -8 8 -26 10 -40 3 -14 10 -45 16 -70 6 -24 8
-55 5 -68 -3 -13 -2 -29 3 -35 14 -19 49 -208 55 -297 1 -14 4 -27 7 -30 8 -8
34 -111 36 -145 4 -73 25 -238 34 -281 6 -26 9 -53 6 -59 -2 -7 -1 -30 4 -51
5 -22 11 -61 14 -89 2 -27 9 -84 15 -125 6 -41 19 -145 30 -230 12 -85 33
-207 47 -270 26 -115 31 -194 15 -214 -5 -6 -19 -38 -31 -71 -12 -33 -30 -79
-41 -102 -10 -24 -19 -47 -19 -52 0 -5 -6 -14 -14 -20 -7 -6 -16 -30 -19 -52
-4 -27 -16 -52 -36 -73 -30 -31 -40 -71 -55 -206 -10 -84 -25 -158 -40 -195
-11 -26 -15 -53 -11 -80 5 -32 4 -36 -5 -22 -9 14 -15 16 -26 6 -13 -10 -12
-14 2 -30 16 -18 16 -19 -11 -19 -27 0 -48 -15 -113 -80 -22 -22 -36 -31 -39
-22 -8 21 -24 13 -21 -10 2 -19 -8 -29 -66 -58 -39 -19 -72 -41 -74 -47 -3
-10 912 -13 4552 -13 l4556 0 0 6550 0 6550 -6550 0 -6550 0 0 -3209z m3553
674 c103 0 120 -2 132 -18 7 -10 19 -17 27 -16 33 4 40 -1 36 -26 -3 -14 1
-33 8 -42 13 -17 14 -17 7 1 -4 13 -3 17 5 12 7 -4 12 -14 12 -22 0 -8 5 -14
10 -14 6 0 10 -5 10 -11 0 -6 27 -38 60 -71 77 -78 80 -84 165 -242 49 -92
135 -307 135 -337 0 -10 4 -20 8 -23 5 -3 14 -31 21 -63 7 -32 16 -62 20 -68
4 -5 8 -35 9 -65 2 -53 29 -227 38 -241 7 -12 36 -247 49 -394 17 -203 17
-203 39 -213 65 -29 191 -62 261 -68 44 -3 85 -11 92 -16 7 -5 17 -7 22 -4 5
4 12 2 16 -4 10 -15 21 -12 54 16 17 14 31 35 31 47 0 16 3 18 12 9 9 -9 26 3
72 52 34 34 71 68 84 75 17 9 21 18 16 33 -5 17 -3 20 10 15 11 -4 44 15 99
59 45 37 84 70 85 75 2 5 8 9 13 9 5 0 39 25 76 55 38 30 73 55 79 55 6 0 21
12 35 26 13 14 40 34 59 44 19 10 45 26 57 37 12 10 54 43 94 73 39 30 93 75
120 98 26 24 53 41 59 37 6 -4 31 5 55 20 52 30 168 69 238 79 26 4 71 15 100
25 29 10 85 24 125 31 40 8 75 17 78 22 3 4 15 8 27 8 13 0 65 13 117 29 98
29 159 42 316 65 50 7 97 17 105 22 8 4 37 11 64 15 28 4 102 16 165 28 63 11
131 21 150 21 20 0 40 4 46 10 5 5 39 15 74 20 72 12 93 13 130 6 14 -2 41 -5
61 -5 21 -1 52 -12 73 -26 20 -14 43 -25 50 -25 8 0 19 -7 26 -16 7 -8 23 -14
34 -13 48 3 65 -1 60 -15 -5 -13 59 -118 144 -235 18 -24 32 -51 32 -59 0 -8
9 -31 19 -51 11 -20 25 -57 32 -83 12 -41 17 -48 39 -48 27 0 226 35 250 44 8
3 55 10 104 16 49 5 94 14 99 19 5 5 16 7 24 4 8 -3 25 5 38 17 14 13 28 20
32 17 3 -4 1 -7 -5 -7 -7 0 -12 -7 -12 -15 0 -12 7 -14 28 -9 15 4 35 11 44
15 9 5 32 9 50 9 19 0 58 6 88 14 39 10 59 11 67 4 17 -13 267 -11 303 2 17 7
97 4 108 -4 8 -6 17 -3 26 10 14 18 15 18 35 0 20 -18 51 -16 51 4 0 5 5 10
10 10 6 0 10 -7 10 -16 0 -14 8 -16 58 -11 36 4 63 2 69 -4 8 -8 191 -14 293
-9 60 3 273 -10 310 -19 25 -6 104 -15 175 -20 72 -5 137 -9 145 -10 208 -16
409 -66 433 -107 4 -8 14 -14 21 -14 32 0 156 -162 156 -205 0 -13 -43 -54
-84 -79 l-29 -18 35 -17 c20 -9 35 -20 35 -25 -3 -33 146 -186 180 -186 29 0
51 19 46 40 -8 31 26 39 49 11 10 -13 18 -30 18 -38 0 -24 -51 -83 -108 -125
-57 -42 -58 -59 -5 -51 23 4 39 16 59 45 15 22 40 46 55 54 15 7 30 23 34 34
3 11 13 20 20 20 28 0 56 171 35 211 -6 11 -13 42 -15 67 -6 70 -13 121 -20
132 -3 5 -1 11 5 15 19 12 -8 186 -29 193 -6 2 -11 8 -11 14 0 6 -12 26 -26
45 -14 19 -23 37 -20 40 9 9 -34 63 -51 63 -9 0 -13 6 -9 15 8 21 -24 84 -46
91 -10 3 -18 12 -18 20 0 8 -4 22 -9 32 -5 9 -12 25 -15 35 -3 10 -10 16 -14
13 -5 -3 -15 11 -22 30 -8 20 -19 33 -26 30 -7 -3 -20 7 -30 22 -10 15 -24 32
-32 38 -11 8 -13 21 -9 45 3 19 3 28 0 22 -9 -23 -23 -13 -23 16 0 37 -57 106
-75 91 -18 -15 -75 17 -75 41 0 21 -16 26 -22 7 -3 -8 -7 -6 -11 4 -7 19 58
82 74 72 5 -3 15 -1 22 4 7 5 24 12 39 16 23 5 26 3 21 -10 -5 -13 -2 -15 18
-9 13 4 30 12 37 17 9 8 12 5 12 -10 0 -12 4 -23 9 -26 14 -9 64 -10 91 -2
l25 7 -25 -22 -25 -22 38 7 c20 3 53 9 72 12 23 4 35 3 35 -5 0 -6 -11 -11
-25 -11 -15 0 -40 -7 -56 -16 -17 -8 -37 -13 -45 -10 -19 7 -27 -9 -15 -31 5
-10 12 -30 16 -45 4 -20 14 -30 38 -37 17 -5 24 -10 15 -10 -25 -1 -22 -21 6
-54 14 -16 27 -34 30 -40 3 -7 12 -2 25 13 l20 25 -8 -36 c-5 -20 -12 -42 -16
-49 -7 -12 32 -74 89 -141 69 -79 79 -94 102 -139 13 -26 24 -53 24 -58 0 -6
5 -12 11 -14 7 -2 13 -47 17 -116 l5 -112 28 0 c37 0 38 -18 2 -22 l-28 -3 -1
-140 c-1 -77 -4 -156 -7 -175 -4 -19 -8 -54 -11 -76 -4 -36 -25 -77 -71 -141
-5 -7 -44 -48 -86 -91 -93 -95 -151 -137 -264 -196 -75 -39 -240 -139 -261
-158 -12 -10 -38 -22 -59 -25 -21 -3 -73 -26 -116 -50 -42 -23 -82 -43 -89
-43 -7 0 -25 -10 -42 -21 -16 -12 -49 -27 -73 -35 -61 -18 -205 -85 -205 -96
0 -4 -9 -8 -19 -8 -11 0 -26 -7 -35 -15 -8 -8 -21 -15 -29 -15 -7 0 -34 -14
-60 -30 -37 -25 -58 -31 -111 -34 -36 -2 -68 0 -72 3 -10 11 -99 9 -106 -2 -5
-8 -14 -7 -31 2 -20 10 -32 9 -82 -8 -32 -11 -65 -26 -74 -34 -9 -7 -29 -19
-46 -26 -16 -7 -37 -17 -45 -22 -8 -4 -45 -24 -82 -43 -70 -37 -145 -92 -256
-188 -36 -32 -71 -58 -78 -58 -12 0 -39 -28 -33 -34 2 -2 20 -7 39 -9 225 -35
321 -51 350 -59 19 -5 51 -10 71 -12 20 -2 40 -5 45 -8 5 -3 41 -11 79 -17 39
-6 93 -16 120 -21 28 -5 61 -11 75 -14 14 -2 61 -11 105 -20 44 -9 97 -16 117
-16 20 0 48 -4 63 -10 30 -11 209 -47 275 -54 131 -15 267 -41 410 -76 41 -11
95 -24 120 -30 25 -6 53 -16 63 -21 9 -5 28 -7 41 -3 17 4 40 -3 73 -22 55
-32 184 -127 203 -149 7 -8 21 -15 31 -15 13 0 19 -7 19 -21 0 -13 6 -20 18
-18 32 3 35 -1 18 -20 -14 -16 -16 -26 -8 -58 16 -60 13 -173 -4 -180 -8 -3
-14 -18 -14 -35 0 -23 -6 -31 -30 -40 -25 -8 -28 -13 -19 -24 12 -14 -1 -19
-42 -15 -10 1 -19 -8 -23 -24 -6 -23 -11 -26 -34 -20 -27 5 -45 0 -147 -44
-71 -31 -240 -84 -325 -101 -30 -6 -77 -18 -105 -25 -86 -24 -340 -81 -400
-90 -22 -3 -64 -15 -93 -26 -29 -10 -66 -19 -83 -19 -17 0 -40 -5 -52 -12 -12
-6 -43 -15 -69 -20 -105 -18 -144 -26 -173 -36 -16 -6 -91 -23 -165 -37 -74
-15 -166 -33 -205 -42 -38 -9 -85 -17 -103 -19 -18 -1 -50 -5 -70 -8 -20 -4
-59 -7 -87 -8 -27 0 -59 -5 -69 -11 -11 -5 -45 -10 -75 -12 -31 -1 -67 -8 -81
-15 -14 -8 -36 -15 -50 -17 -14 -2 -41 -6 -60 -9 -19 -3 -55 -6 -80 -7 -25 -1
-57 -10 -71 -20 -16 -11 -54 -19 -105 -23 -43 -3 -112 -17 -152 -30 -85 -28
-86 -28 -78 -9 4 11 -2 15 -22 15 -15 0 -38 3 -51 7 -18 4 -22 3 -16 -6 9 -15
9 -83 0 -110 -6 -20 -53 -33 -126 -36 -20 0 -49 -9 -64 -19 -25 -16 -30 -17
-39 -4 -26 35 -106 23 -106 -17 0 -7 -10 -15 -22 -17 -13 -2 -22 -9 -21 -16 3
-13 -32 -32 -97 -52 -25 -8 -56 -21 -70 -31 -14 -9 -43 -22 -65 -30 -22 -7
-44 -17 -49 -21 -6 -4 -16 -8 -24 -8 -19 0 -82 -30 -80 -38 3 -14 -16 -66 -43
-123 -16 -33 -29 -66 -29 -74 0 -18 -99 -212 -162 -315 -24 -41 -71 -124 -103
-185 -74 -141 -395 -680 -486 -816 -13 -19 -53 -81 -89 -137 -36 -57 -96 -151
-135 -210 -264 -406 -338 -521 -479 -747 -61 -99 -132 -211 -157 -250 -58 -90
-110 -172 -129 -205 -83 -143 -105 -180 -126 -215 -13 -22 -33 -69 -44 -105
-12 -36 -32 -87 -45 -115 -13 -27 -57 -120 -98 -205 -41 -85 -78 -170 -82
-188 -3 -18 -17 -45 -29 -60 -13 -15 -31 -40 -40 -57 -20 -36 -39 -65 -88
-138 -36 -53 -122 -137 -139 -137 -5 0 -9 -5 -9 -10 0 -18 -124 -130 -144
-130 -7 0 -20 -9 -27 -21 -15 -22 -49 -18 -49 7 0 17 17 18 22 2 3 -8 9 -6 16
8 7 14 7 25 0 35 -8 11 -9 11 -4 -3 3 -10 2 -18 -3 -18 -5 0 -11 8 -14 19 -3
14 3 21 30 29 19 6 40 9 47 6 7 -3 18 7 24 21 6 14 17 24 24 23 7 -2 12 3 10
11 -2 7 4 22 13 31 19 21 47 108 39 121 -10 17 -32 9 -27 -10 11 -41 -39 -84
-54 -46 -8 22 6 33 17 15 7 -11 10 -5 10 23 0 25 5 37 14 37 7 0 19 7 26 15 7
8 22 15 34 15 21 1 21 1 -3 20 -16 14 -19 20 -8 20 8 0 17 5 19 12 3 7 10 8
17 4 11 -7 11 -10 0 -17 -11 -7 -10 -9 5 -9 12 0 16 -5 12 -15 -7 -20 0 -19
24 5 24 24 26 40 5 40 -22 0 -18 17 5 23 10 3 22 0 25 -7 3 -6 3 0 0 14 -2 14
-5 37 -5 53 0 17 -5 27 -15 27 -17 0 -20 26 -4 35 5 4 18 0 27 -8 20 -17 43
-12 35 9 -3 8 0 21 7 29 7 8 9 22 6 31 -4 9 -2 22 3 28 5 6 11 27 14 46 27
184 51 280 69 280 5 0 8 16 8 36 0 24 4 33 12 28 8 -5 9 -2 5 11 -7 17 20 95
33 95 4 0 19 11 34 25 24 22 27 32 25 73 -3 38 0 47 14 50 10 2 17 13 17 27 0
13 5 27 10 30 6 3 10 16 10 27 0 11 8 26 17 33 15 11 16 16 4 38 -11 21 -11
28 2 48 9 13 21 56 27 94 6 39 18 99 26 133 8 35 12 68 8 73 -3 5 -1 9 4 9 6
0 10 10 10 23 1 50 15 127 23 127 5 0 9 7 9 15 0 8 -3 15 -8 15 -4 0 -6 20 -4
45 2 25 8 43 12 40 10 -6 21 52 24 130 4 88 16 288 17 294 1 4 1 10 0 15 -1 6
3 19 9 31 8 16 8 28 -1 50 -7 17 -13 35 -14 40 0 6 -4 16 -8 23 -5 6 -4 12 1
12 5 0 8 27 7 60 -2 33 1 63 6 66 5 3 9 36 9 74 0 41 5 74 13 82 23 26 34 53
27 68 -46 94 -48 266 -6 440 14 57 24 112 21 121 -3 8 4 24 15 34 11 10 20 22
20 27 0 4 16 30 36 58 20 27 33 50 29 50 -6 0 32 59 45 70 14 12 50 79 50 94
0 12 6 15 25 10 29 -7 31 3 7 32 -22 27 -58 36 -73 18 -6 -8 -18 -14 -25 -14
-8 0 -15 -10 -15 -22 -1 -13 -5 -5 -8 17 -6 40 7 81 37 113 14 16 16 32 3 32
-5 0 -14 -14 -21 -30 -7 -17 -30 -47 -51 -68 -20 -20 -48 -57 -61 -82 -44 -83
-83 -135 -86 -116 -2 9 1 22 6 29 17 21 24 83 14 121 -11 40 -7 44 20 20 16
-16 18 -15 25 4 5 11 12 20 17 20 12 -1 56 33 56 44 0 10 12 25 56 71 32 33
51 72 60 122 7 37 4 36 53 38 30 1 41 5 41 17 0 9 8 23 18 32 9 10 26 26 36
38 11 11 27 20 36 20 19 0 64 75 55 90 -4 6 -10 8 -13 6 -4 -2 -7 13 -5 34 1
21 -2 51 -6 67 -6 24 -13 28 -47 30 -21 1 -48 -3 -59 -8 -47 -23 -161 63 -203
153 -32 69 -30 85 8 58 26 -19 33 -20 47 -8 12 9 15 9 9 1 -4 -7 -2 -13 4 -13
9 0 7 26 -5 67 -3 7 5 17 15 23 12 6 20 21 20 35 0 21 5 25 30 25 17 0 30 5
30 11 0 19 78 3 121 -25 48 -32 62 -32 82 -2 9 13 22 30 30 37 26 27 36 56 31
95 -3 21 -6 51 -7 66 -1 17 -16 41 -39 63 -20 20 -40 45 -43 56 -4 10 -11 19
-16 19 -5 0 -9 7 -9 15 0 8 -8 19 -18 24 -10 5 -24 21 -32 35 -7 14 -19 26
-27 26 -7 0 -13 7 -13 15 0 8 -7 15 -15 15 -8 0 -15 6 -15 13 0 19 -111 157
-187 232 -24 23 -43 45 -43 48 0 3 -12 18 -27 34 -16 16 -39 45 -53 63 -14 19
-40 49 -57 68 -18 19 -33 38 -33 42 0 5 -8 15 -18 22 -11 7 -24 23 -31 36 -6
12 -18 22 -26 22 -8 0 -15 7 -15 15 0 8 -6 15 -14 15 -7 0 -16 8 -20 18 -10
31 -44 79 -80 117 -20 20 -40 54 -46 76 -6 21 -15 39 -20 39 -6 0 -10 8 -10
19 0 10 -7 24 -15 31 -9 7 -13 15 -10 18 2 3 -5 14 -18 26 -12 12 -29 35 -37
51 -8 17 -23 36 -32 43 -10 7 -18 23 -18 34 0 24 -59 107 -77 108 -6 0 -14 14
-18 30 -4 17 -18 38 -31 46 -13 9 -24 24 -24 33 0 9 -16 38 -35 65 -19 27 -44
69 -56 94 -12 25 -30 47 -41 50 -10 2 -18 12 -18 22 0 9 -13 27 -30 40 -16 13
-30 27 -30 31 0 18 -125 151 -133 142 -3 -2 -8 5 -12 16 -3 12 -10 21 -15 21
-4 0 -13 14 -19 31 -7 22 -15 29 -26 25 -8 -3 -15 -1 -15 3 0 5 -19 29 -42 53
-23 24 -43 46 -43 50 0 4 -15 20 -32 36 -18 16 -33 34 -33 40 0 7 -4 12 -9 12
-5 0 -13 9 -16 21 -6 19 -20 18 -20 -2 0 -5 -4 -10 -10 -11 -5 -2 -11 12 -13
30 -2 17 -7 32 -11 32 -3 0 -36 27 -71 60 -35 33 -70 60 -77 60 -7 0 -13 6
-13 14 0 8 -9 17 -19 21 -11 3 -27 18 -37 32 -17 26 -17 27 -25 6 -6 -17 -13
-20 -31 -15 -23 6 -23 7 -2 10 29 4 37 36 13 50 -13 9 -20 9 -25 0 -5 -7 -10
-3 -16 12 -10 27 -13 25 -21 -17 -5 -26 -3 -31 8 -26 8 3 15 0 15 -6 0 -6 -7
-11 -15 -11 -8 0 -15 -7 -15 -15 0 -11 11 -15 36 -15 35 0 64 -18 64 -39 0 -6
4 -11 9 -11 5 0 11 -10 13 -22 2 -13 13 -27 24 -32 12 -6 31 -29 43 -53 11
-24 25 -43 31 -43 5 0 10 -8 10 -17 0 -10 15 -30 33 -44 21 -17 37 -42 46 -72
7 -26 17 -47 22 -47 4 0 16 -13 26 -30 16 -27 35 -41 32 -22 -5 30 4 31 17 2
9 -19 23 -51 32 -72 14 -31 21 -36 47 -35 26 2 30 -2 33 -27 5 -44 -15 -56
-42 -25 -12 14 -30 28 -40 32 -9 4 -15 11 -11 16 3 5 -6 22 -21 38 -14 15 -21
29 -15 31 6 2 11 8 11 13 0 5 -9 4 -20 -3 -18 -11 -24 -9 -49 17 -15 17 -41
42 -57 56 -16 13 -46 46 -67 72 -21 26 -44 47 -50 47 -7 0 -29 18 -50 40 -21
23 -51 43 -67 46 -16 4 -52 27 -82 53 -51 45 -108 89 -154 121 -12 8 -48 33
-80 55 -33 22 -67 49 -76 60 -10 11 -17 16 -18 12 0 -5 -23 13 -51 40 -28 26
-61 54 -75 61 -13 7 -24 16 -24 20 0 5 -17 18 -37 29 -21 12 -53 35 -72 52
-19 17 -38 31 -43 31 -9 0 -63 36 -86 58 -8 7 -28 20 -45 29 -18 9 -44 25 -58
37 -14 12 -43 35 -64 51 -21 17 -59 47 -84 67 -64 53 -110 74 -133 59 -25 -16
-41 -14 -34 4 3 9 2 23 -3 33 -9 17 -41 175 -37 179 1 2 38 10 82 19 43 9 84
23 91 31 11 14 15 14 40 -3 26 -17 170 -94 176 -94 2 0 4 87 5 193 1 105 5
215 10 242 5 28 8 105 8 172 -1 82 3 124 10 127 6 2 13 32 16 65 3 37 11 67
21 79 13 14 15 31 11 75 -5 56 -5 58 18 52 18 -5 29 1 46 25 13 17 28 28 34
24 6 -4 8 -3 5 3 -4 6 2 18 12 27 27 24 41 86 19 79 -12 -4 -10 3 13 47 12 23
25 38 28 33 3 -4 59 -8 124 -8z m-783 -1215 c0 -11 -4 -20 -10 -20 -5 0 -10 9
-10 20 0 11 5 20 10 20 6 0 10 -9 10 -20z m1637 -1172 c-3 -8 -6 -5 -6 6 -1
11 2 17 5 13 3 -3 4 -12 1 -19z m173 -334 c0 -17 -6 -24 -20 -24 -15 0 -20 7
-20 28 0 16 3 32 7 35 11 12 33 -14 33 -39z m80 -54 c0 -5 -4 -10 -10 -10 -5
0 -10 5 -10 10 0 6 5 10 10 10 6 0 10 -4 10 -10z m-32 -30 c7 0 12 -8 12 -18
0 -11 8 -18 22 -19 40 -3 120 -111 131 -175 5 -35 11 -45 45 -83 6 -7 12 -21
12 -30 0 -10 6 -15 13 -12 8 3 14 -3 14 -15 2 -28 -31 -19 -35 10 -2 12 -10
22 -18 22 -8 0 -17 7 -21 15 -3 9 -19 31 -35 50 -17 18 -36 42 -42 53 -6 11
-28 44 -48 74 -21 31 -38 62 -38 71 0 9 -12 22 -27 29 -17 8 -29 23 -32 38 -3
24 -2 24 16 7 11 -9 25 -17 31 -17z m252 -114 c0 -3 -7 -6 -15 -6 -9 0 -15 9
-15 21 0 18 2 19 15 5 8 -8 15 -17 15 -20z m45 -136 c3 -5 1 -10 -4 -10 -6 0
-11 5 -11 10 0 6 2 10 4 10 3 0 8 -4 11 -10z m130 -129 c3 -5 1 -12 -5 -16 -5
-3 -10 1 -10 9 0 18 6 21 15 7z m-135 -65 c0 -3 -4 -8 -10 -11 -5 -3 -10 -1
-10 4 0 6 5 11 10 11 6 0 10 -2 10 -4z m28 -49 c12 18 40 -52 41 -102 l1 -40
-25 49 c-14 27 -25 56 -25 63 0 7 -7 16 -15 19 -8 4 -12 11 -9 16 4 6 10 5 15
-3 7 -11 11 -11 17 -2z m63 -160 c-8 -8 -11 -5 -11 9 0 27 14 41 18 19 2 -9
-1 -22 -7 -28z m44 -67 c-9 -29 -26 -12 -18 18 4 15 9 20 15 14 6 -6 7 -20 3
-32z m-3484 -307 c7 -7 -15 -9 -68 -7 -43 2 -99 4 -125 4 -29 0 -48 5 -48 11
0 15 226 7 241 -8z m-266 -3 c-3 -5 -32 -10 -63 -10 -41 0 -53 3 -42 10 20 13
113 13 105 0z m423 -17 c15 -14 14 -15 -3 -10 -11 3 -46 9 -77 13 -32 3 -58
11 -58 16 0 16 120 -1 138 -19z m139 1 c34 -4 60 -11 57 -16 -9 -14 -157 2
-174 19 -13 14 -11 15 20 9 19 -3 63 -9 97 -12z m-730 -10 c-3 -3 -12 -4 -19
-1 -8 3 -5 6 6 6 11 1 17 -2 13 -5z m1001 -21 c-10 -2 -28 -2 -40 0 -13 2 -5
4 17 4 22 1 32 -1 23 -4z m-1121 -13 c27 0 5 -13 -27 -17 -16 -1 -30 1 -30 5
0 15 13 23 28 17 7 -3 21 -5 29 -5z m320 -57 c5 -15 -29 -25 -61 -17 -24 6
-34 23 -21 36 9 9 78 -7 82 -19z m93 3 c0 -11 -19 -15 -25 -6 -3 5 1 10 9 10
9 0 16 -2 16 -4z m488 -6 c1 0 2 -5 2 -11 0 -14 -160 -2 -175 13 -7 7 18 8 80
4 50 -3 91 -5 93 -6z m-518 -28 c0 -10 5 -23 12 -30 18 -18 1 -14 -22 5 -24
21 -26 43 -5 43 8 0 15 -8 15 -18z m80 10 c0 -13 -12 -22 -22 -16 -10 6 -1 24
13 24 5 0 9 -4 9 -8z m-693 -298 c-9 -9 -28 6 -21 18 4 6 10 6 17 -1 6 -6 8
-13 4 -17z m1898 -239 c291 -9 431 -15 455 -18 48 -7 90 -20 90 -28 0 -14 42
-21 142 -24 75 -2 103 -6 116 -19 10 -9 25 -16 34 -16 19 0 61 -44 51 -54 -4
-4 -1 -11 7 -16 8 -5 16 -15 16 -22 1 -7 2 -19 3 -25 0 -7 8 -13 17 -13 9 0
12 -5 8 -12 -9 -14 -13 -50 -8 -59 2 -4 19 -3 38 1 25 5 41 3 55 -7 15 -10 21
-11 21 -2 0 8 15 10 51 6 57 -7 82 -23 76 -47 -2 -8 4 -72 13 -140 15 -107 23
-135 53 -190 22 -39 34 -73 31 -85 -3 -14 6 -32 29 -56 26 -27 33 -43 30 -62
-3 -14 2 -36 11 -49 9 -14 14 -32 10 -41 -3 -9 3 -23 15 -34 12 -9 21 -27 21
-38 1 -33 24 -111 39 -129 8 -10 9 -16 2 -16 -7 0 -8 -8 -1 -26 6 -14 8 -29 5
-34 -3 -5 0 -20 7 -34 10 -23 9 -28 -8 -41 -16 -13 -17 -16 -4 -25 12 -8 11
-10 -7 -10 -13 0 -23 3 -23 8 0 10 -79 34 -91 26 -5 -3 -16 -1 -23 5 -7 6 -21
12 -32 14 -10 2 -29 9 -42 16 -13 7 -36 13 -53 13 -16 1 -34 7 -40 14 -6 7
-24 16 -40 19 -16 4 -31 11 -34 16 -4 5 -13 9 -21 9 -8 0 -34 9 -56 20 -23 11
-50 20 -60 20 -10 0 -18 4 -18 9 0 5 -16 9 -35 8 -20 -1 -40 5 -47 14 -15 18
-80 40 -123 42 -17 1 -36 8 -44 15 -8 8 -24 11 -36 8 -14 -4 -25 -1 -28 8 -7
18 -119 29 -129 13 -5 -8 -8 -7 -8 5 0 12 -11 19 -37 23 -21 4 -56 16 -78 27
-34 18 -98 32 -180 40 -11 1 -26 8 -33 15 -7 7 -25 15 -40 18 -15 3 -61 16
-102 30 -41 14 -86 28 -100 30 -54 11 -125 33 -170 54 -8 4 -19 17 -24 28 -6
12 -22 28 -38 38 -20 11 -28 24 -28 43 0 21 -2 24 -10 12 -8 -13 -11 -12 -24
5 -9 12 -15 15 -16 7 0 -7 -5 -10 -11 -7 -6 4 -8 12 -6 19 3 6 -15 32 -39 56
-31 32 -44 53 -44 73 l0 29 -97 -7 c-54 -4 -102 -11 -106 -15 -10 -9 -57 0
-57 11 0 5 -13 9 -30 9 -16 0 -30 5 -30 10 0 6 21 10 46 10 27 0 43 -4 39 -10
-10 -15 6 -12 19 4 7 10 36 16 81 18 47 3 70 8 69 16 -1 7 -2 31 -3 55 -2 39
-3 41 -16 23 -14 -18 -15 -17 -15 25 0 29 -6 52 -17 65 -10 11 -27 36 -37 57
-11 20 -25 37 -33 37 -7 0 -13 8 -13 18 -1 24 -50 81 -57 65 -8 -22 -23 -14
-23 12 0 21 -5 25 -30 25 -20 0 -30 -5 -30 -15 0 -20 -10 -19 -27 3 -11 13
-16 14 -20 4 -4 -10 -8 -10 -20 0 -9 7 -23 13 -32 13 -20 0 -21 30 -1 30 8 1
28 9 43 20 16 10 50 19 75 21 133 7 222 18 222 26 0 9 229 6 645 -7z m-1870
-256 c4 -12 2 -26 -4 -32 -8 -8 -11 -6 -11 7 0 11 -8 25 -17 32 -17 12 -16 13
4 14 13 0 24 -8 28 -21z m935 -245 c0 -11 -6 -14 -22 -8 -30 9 -30 8 -22 27 5
13 10 14 25 6 10 -5 19 -17 19 -25z m-1235 -134 c3 -5 -1 -10 -10 -10 -9 0
-13 5 -10 10 3 6 8 10 10 10 2 0 7 -4 10 -10z m-77 -84 c-7 -8 -15 -12 -17
-11 -5 6 10 25 20 25 5 0 4 -6 -3 -14z m-218 -150 c0 -17 -14 -29 -23 -20 -8
8 3 34 14 34 5 0 9 -6 9 -14z m5375 -566 c-15 -24 -54 -186 -49 -202 3 -10 1
-18 -4 -18 -16 0 -22 -28 -38 -165 -22 -200 -33 -285 -38 -303 -8 -26 -17
-125 -21 -242 -6 -145 -11 -187 -29 -245 -9 -27 -16 -64 -16 -80 0 -17 -4 -35
-9 -40 -15 -17 -52 -153 -117 -425 -67 -282 -74 -315 -79 -344 -2 -16 -9 -34
-14 -39 -6 -6 -11 -19 -11 -29 0 -11 -9 -38 -20 -60 -11 -23 -20 -51 -20 -63
0 -12 -13 -73 -29 -136 -15 -63 -31 -125 -34 -139 -3 -14 -15 -59 -27 -100
-38 -131 -41 -151 -44 -288 -3 -132 4 -163 29 -129 7 9 16 13 20 9 4 -4 5 5 1
20 -3 15 -2 30 4 33 15 9 12 27 -2 19 -7 -4 2 8 20 26 30 31 37 50 34 94 -2
12 3 16 13 12 10 -4 15 1 15 14 0 11 -7 20 -15 20 -15 0 -22 19 -7 21 4 0 15
2 25 4 9 2 17 -3 17 -10 0 -30 -43 -231 -51 -239 -5 -6 -9 -18 -9 -27 0 -28
-57 -69 -95 -69 -52 0 -110 63 -109 116 2 66 4 74 19 74 18 0 20 21 3 38 -9 9
-8 12 5 12 14 0 15 4 7 26 -9 22 -8 25 4 21 19 -7 31 9 15 19 -9 5 -8 10 3 18
17 13 33 90 16 80 -6 -4 -6 1 1 14 6 11 12 36 12 54 2 32 2 32 9 -7 4 -22 8
-30 9 -17 0 12 6 22 12 22 7 0 9 9 5 24 -4 15 0 28 9 36 10 8 15 30 15 63 0
32 7 61 19 81 12 19 21 53 22 86 1 30 8 64 16 75 7 11 13 29 13 40 0 11 7 31
16 43 8 12 16 37 18 55 1 17 9 46 18 62 8 17 18 53 22 80 10 77 39 199 48 206
5 3 10 24 11 47 1 23 4 42 7 42 7 0 30 99 30 133 0 15 4 27 8 27 5 0 9 15 10
34 1 19 10 54 21 78 10 24 22 54 24 68 3 14 11 43 18 65 6 22 12 56 13 75 0
19 7 39 14 43 6 4 12 15 12 23 0 8 -4 12 -10 9 -6 -4 -10 8 -10 29 0 20 4 36
9 36 5 0 9 33 9 73 1 114 21 300 33 308 8 5 9 15 2 35 -7 18 -7 38 -1 54 5 14
7 39 3 57 -4 22 -1 34 9 40 9 5 16 35 20 93 4 47 8 109 11 139 2 30 9 59 15
65 5 5 10 18 10 28 0 10 7 21 15 24 9 4 15 19 15 38 0 19 3 26 8 18 5 -7 15
11 27 50 11 35 18 66 17 71 -1 4 5 7 14 7 8 0 12 -5 9 -10z m-3147 -1659 c2
-12 12 -27 22 -33 10 -6 16 -18 13 -25 -5 -12 50 -73 66 -73 8 0 27 -36 49
-90 11 -26 41 -93 90 -200 16 -36 38 -90 50 -120 28 -77 31 -83 41 -100 16
-28 52 -124 67 -179 8 -30 28 -79 44 -110 15 -31 39 -85 51 -121 12 -36 26
-69 30 -75 4 -5 12 -30 18 -55 7 -25 20 -63 30 -85 10 -22 24 -60 31 -85 6
-25 19 -63 29 -85 24 -53 51 -146 51 -174 0 -11 4 -29 9 -39 5 -9 13 -28 19
-42 5 -14 15 -38 22 -55 22 -54 39 -109 45 -150 4 -22 15 -67 25 -100 9 -33
21 -86 24 -118 6 -48 5 -58 -9 -63 -9 -4 -20 -3 -24 2 -3 5 -22 10 -41 11 -19
1 -44 7 -55 12 -27 12 -99 31 -118 31 -9 0 -28 5 -44 11 -15 6 -41 13 -57 14
-17 2 -35 10 -41 19 -7 10 -27 16 -48 16 -20 0 -39 4 -42 10 -3 5 -14 10 -23
10 -10 0 -35 9 -57 20 -22 11 -48 20 -58 20 -10 0 -30 9 -44 20 -14 11 -33 20
-42 20 -9 0 -25 7 -35 15 -10 8 -23 12 -29 8 -5 -3 -6 7 -2 26 4 20 3 31 -4
31 -6 0 -11 -5 -11 -11 0 -7 -9 0 -20 14 -11 14 -20 30 -20 35 0 5 -7 12 -15
16 -20 7 -19 33 3 45 11 7 13 10 3 11 -9 0 -11 7 -8 21 3 12 -3 38 -13 59 -17
33 -17 41 -5 76 7 21 18 40 24 42 14 5 14 35 1 48 -17 17 -19 122 -4 135 20
16 19 80 -1 73 -14 -6 -20 22 -18 84 1 6 -3 12 -8 12 -5 0 -8 37 -7 83 1 45
-1 128 -4 185 -4 85 -9 105 -24 117 -11 8 -14 15 -9 15 6 0 10 20 10 44 0 24
-3 42 -7 40 -11 -7 -29 33 -22 50 3 9 14 16 23 17 9 0 11 3 4 6 -19 7 -28 70
-12 89 10 13 10 17 0 24 -8 4 -11 16 -6 29 3 12 2 21 -4 21 -6 0 -7 9 -1 28
10 27 9 49 -1 67 -13 21 -20 85 -9 85 13 0 13 32 -2 67 -6 15 -10 38 -9 51 1
12 -2 22 -8 22 -6 0 -11 6 -11 13 1 17 46 67 62 67 9 1 7 5 -4 14 -10 7 -18
18 -18 25 0 17 21 13 36 -6 12 -17 13 -16 14 4 0 12 5 25 10 28 6 3 10 20 10
36 0 36 23 35 28 0z m2782 -864 c0 -12 -6 -39 -14 -61 l-13 -39 -5 33 c-3 20
1 37 10 46 8 8 12 24 9 34 -3 11 -1 18 4 14 5 -3 9 -15 9 -27z m-37 -128 c-8
-29 -13 -23 -13 14 0 22 3 28 9 18 5 -7 6 -22 4 -32z m-3 -49 c0 -5 -4 -10
-10 -10 -5 0 -10 5 -10 10 0 6 5 10 10 10 6 0 10 -4 10 -10z m-77 -470 c-9
-11 -19 -18 -21 -16 -6 7 22 45 30 40 4 -3 0 -13 -9 -24z m-58 -129 c3 -5 1
-12 -5 -16 -5 -3 -10 1 -10 9 0 18 6 21 15 7z m-125 -238 c0 -5 -7 -16 -15
-27 -8 -11 -12 -30 -8 -47 3 -18 1 -29 -6 -29 -6 0 -11 5 -11 11 0 5 -4 8 -9
4 -18 -10 -23 17 -10 43 19 37 60 68 59 45z m-122 -158 c-3 -3 -9 2 -12 12 -6
14 -5 15 5 6 7 -7 10 -15 7 -18z m-58 -75 c13 0 17 5 14 15 -8 19 5 19 31 0
18 -15 18 -16 -15 -45 -19 -16 -38 -29 -42 -30 -15 0 -26 36 -20 65 4 20 7 24
10 13 2 -10 12 -18 22 -18z m-70 -14 c0 -3 -4 -8 -10 -11 -5 -3 -10 -1 -10 4
0 6 5 11 10 11 6 0 10 -2 10 -4z m-15 -85 c-4 -9 -6 -18 -7 -21 0 -3 -9 -18
-20 -33 -18 -26 -25 -28 -57 -22 -20 4 -39 12 -43 18 -11 17 33 48 58 42 14
-3 28 3 40 17 19 21 19 21 -3 9 -32 -17 -39 -13 -15 8 12 10 22 27 22 37 0 14
4 11 15 -10 9 -16 13 -37 10 -45z m49 52 c9 -22 -10 -41 -25 -26 -13 13 -5 43
10 43 5 0 12 -8 15 -17z m-118 -20 c-10 -10 -19 5 -10 18 6 11 8 11 12 0 2 -7
1 -15 -2 -18z"/>
<path d="M3600 10401 c0 -5 -9 -11 -20 -14 -13 -3 -20 -14 -20 -30 0 -22 -16
-37 -41 -37 -5 0 -9 7 -9 15 0 8 -4 15 -10 15 -12 0 -13 -17 -1 -24 7 -5 8
-37 1 -76 0 -3 -5 2 -10 10 -8 12 -10 9 -10 -13 0 -16 -3 -26 -7 -24 -5 3 -8
-21 -9 -52 0 -35 -11 -89 -31 -146 -35 -104 -67 -230 -66 -262 1 -14 -3 -20
-10 -16 -6 4 -8 -4 -4 -23 5 -26 -25 -192 -38 -214 -3 -4 0 -10 6 -12 7 -2 4
-23 -9 -63 -11 -33 -22 -79 -25 -103 -5 -43 -5 -43 16 -28 12 9 32 21 44 26
14 6 20 15 17 24 -3 9 0 29 7 45 11 25 16 28 32 19 15 -7 18 -7 12 2 -4 7 -2
23 5 36 11 19 16 21 28 12 11 -10 13 -8 10 12 -2 17 -9 24 -20 22 -14 -2 -16
3 -11 35 6 42 21 66 34 57 5 -3 9 -13 8 -22 0 -11 -3 -12 -6 -4 -7 19 -19 14
-19 -8 0 -15 6 -20 21 -18 15 2 20 10 18 28 -2 31 16 80 29 80 6 0 8 12 5 29
-4 21 -1 34 13 46 10 9 21 38 25 66 4 27 13 56 21 64 8 7 14 20 14 29 0 8 5
18 11 22 6 3 9 22 7 40 -2 19 0 34 4 34 4 0 8 -5 8 -12 0 -9 3 -8 13 1 10 11
10 14 0 18 -17 6 -17 34 -1 31 8 -2 12 7 10 25 -2 16 2 29 10 32 7 3 14 19 14
36 1 17 7 35 15 40 12 7 12 12 0 31 -10 16 -10 23 -2 26 13 4 15 43 2 40 -12
-4 -14 3 -6 25 13 31 -4 84 -27 91 -12 3 -19 8 -15 12 8 8 -11 34 -24 34 -5 0
-9 -4 -9 -9z"/>
<path d="M3313 10323 c-15 -6 -17 -43 -3 -43 6 0 10 10 10 22 0 20 1 21 20 3
11 -10 20 -15 20 -11 0 8 -26 37 -32 35 -2 0 -9 -3 -15 -6z"/>
<path d="M3413 10305 c-8 -22 6 -33 17 -15 13 20 12 30 0 30 -6 0 -13 -7 -17
-15z"/>
<path d="M3265 10201 c-3 -5 -1 -12 5 -16 5 -3 10 1 10 9 0 18 -6 21 -15 7z"/>
<path d="M3315 9270 c-3 -5 -1 -10 4 -10 6 0 11 5 11 10 0 6 -2 10 -4 10 -3 0
-8 -4 -11 -10z"/>
<path d="M3306 8955 c4 -8 10 -15 14 -15 5 0 15 -6 22 -14 8 -7 25 -17 38 -21
l25 -7 -20 20 c-11 11 -22 20 -25 20 -22 0 -30 4 -30 17 0 8 -7 15 -15 15 -9
0 -12 -6 -9 -15z"/>
<path d="M3385 8940 c3 -5 11 -10 16 -10 6 0 7 5 4 10 -3 6 -11 10 -16 10 -6
0 -7 -4 -4 -10z"/>
<path d="M3642 8920 c12 -16 26 -30 31 -30 5 0 6 -7 3 -16 -3 -8 -2 -13 3 -9
15 9 39 -5 46 -28 7 -21 7 -21 12 -2 3 10 0 21 -6 23 -6 2 -11 10 -11 18 0 8
-7 14 -15 14 -19 0 -55 31 -55 47 0 7 -7 13 -15 13 -13 0 -11 -6 7 -30z"/>
<path d="M3410 8901 c0 -17 18 -31 41 -31 5 0 9 7 9 16 0 10 -6 14 -15 10 -9
-3 -15 0 -15 9 0 8 -4 15 -10 15 -5 0 -10 -9 -10 -19z"/>
<path d="M3480 8875 c-26 -14 -26 -20 -1 -45 13 -13 14 -13 8 4 -5 13 -1 24
14 37 26 22 15 24 -21 4z"/>
<path d="M3555 8830 c3 -5 11 -10 16 -10 6 0 7 5 4 10 -3 6 -11 10 -16 10 -6
0 -7 -4 -4 -10z"/>
<path d="M3760 8826 c0 -8 5 -18 10 -21 6 -4 8 -10 5 -15 -3 -5 5 -16 17 -24
25 -18 68 -21 68 -6 0 6 -4 10 -8 10 -4 0 -23 16 -42 35 -38 38 -50 43 -50 21z"/>
<path d="M3857 8717 c-10 -26 54 -83 91 -81 12 1 25 -3 28 -7 3 -5 -2 -9 -11
-9 -9 0 -13 -4 -10 -10 9 -15 45 -12 45 4 0 25 -12 46 -26 46 -8 0 -14 7 -14
15 0 8 -7 15 -16 15 -9 0 -24 10 -35 23 -15 18 -20 19 -28 8 -7 -11 -9 -11
-13 0 -3 9 -6 8 -11 -4z m93 -51 c0 -3 -4 -8 -10 -11 -5 -3 -10 -1 -10 4 0 6
5 11 10 11 6 0 10 -2 10 -4z"/>
<path d="M4505 8290 c3 -5 8 -10 11 -10 2 0 4 5 4 10 0 6 -5 10 -11 10 -5 0
-7 -4 -4 -10z"/>
<path d="M7667 6871 c8 -34 26 -65 20 -33 -6 25 -4 26 25 11 16 -8 24 -8 34 3
12 12 7 16 -36 29 l-49 15 6 -25z"/>
<path d="M7758 6806 c-3 -24 0 -32 9 -29 15 6 27 39 18 53 -12 19 -23 10 -27
-24z"/>
<path d="M7790 6775 c-16 -30 -6 -44 20 -27 27 17 33 15 27 -8 -3 -11 1 -27
10 -35 18 -18 33 -19 33 -2 0 8 3 7 10 -3 5 -8 12 -12 15 -8 6 5 -86 108 -97
108 -3 0 -11 -11 -18 -25z"/>
<path d="M11145 6634 c-11 -2 -81 -5 -155 -8 -74 -2 -157 -9 -185 -15 -27 -6
-71 -14 -97 -17 -27 -4 -48 -10 -48 -15 0 -4 -10 -10 -22 -12 -16 -4 -13 -5 7
-4 17 1 35 -5 41 -13 10 -12 14 -12 28 0 10 7 38 13 63 13 34 0 52 6 71 24 29
27 46 28 97 7 26 -11 40 -12 45 -5 9 15 97 24 105 11 9 -15 31 -12 49 6 14 14
20 12 56 -17 38 -31 65 -35 42 -6 -8 10 -6 16 11 27 l22 14 -25 7 c-26 7 -71
9 -105 3z"/>
<path d="M10466 6538 c3 -5 10 -6 15 -3 13 9 11 12 -6 12 -8 0 -12 -4 -9 -9z"/>
<path d="M10288 6503 c7 -3 16 -2 19 1 4 3 -2 6 -13 5 -11 0 -14 -3 -6 -6z"/>
<path d="M10175 6480 c-3 -5 1 -10 10 -10 9 0 13 5 10 10 -3 6 -8 10 -10 10
-2 0 -7 -4 -10 -10z"/>
<path d="M9990 6453 c-47 -6 -59 -19 -20 -25 21 -3 38 1 52 14 12 10 17 17 12
16 -5 0 -25 -3 -44 -5z"/>
<path d="M9851 6421 c-8 -5 -20 -7 -27 -4 -6 2 -15 0 -19 -6 -4 -7 4 -11 19
-11 14 0 28 5 31 10 4 7 14 6 28 -2 20 -10 21 -10 8 5 -15 19 -20 20 -40 8z"/>
<path d="M9745 6400 c-3 -5 3 -10 14 -10 11 0 23 5 26 10 3 6 -3 10 -14 10
-11 0 -23 -4 -26 -10z"/>
<path d="M9708 6383 c7 -3 16 -2 19 1 4 3 -2 6 -13 5 -11 0 -14 -3 -6 -6z"/>
<path d="M9400 6320 c-13 -8 -12 -10 3 -10 9 0 17 5 17 10 0 12 -1 12 -20 0z"/>
<path d="M9325 6300 c-3 -5 -2 -10 4 -10 5 0 13 5 16 10 3 6 2 10 -4 10 -5 0
-13 -4 -16 -10z"/>
<path d="M9095 6250 c-3 -5 -1 -10 4 -10 6 0 11 5 11 10 0 6 -2 10 -4 10 -3 0
-8 -4 -11 -10z"/>
<path d="M8500 6120 c0 -11 2 -20 4 -20 2 0 6 9 9 20 3 11 1 20 -4 20 -5 0 -9
-9 -9 -20z"/>
<path d="M7851 5881 c-19 -3 -37 -12 -39 -20 -4 -11 0 -12 14 -6 11 4 34 10
51 13 18 2 30 8 27 13 -3 5 -8 8 -12 8 -4 -1 -22 -4 -41 -8z"/>
<path d="M7765 5849 c-11 -17 0 -20 21 -4 17 13 17 14 2 15 -9 0 -20 -5 -23
-11z"/>
<path d="M7970 5850 c0 -5 5 -10 10 -10 6 0 10 5 10 10 0 6 -4 10 -10 10 -5 0
-10 -4 -10 -10z"/>
<path d="M7845 5823 c-28 -4 -55 -26 -55 -46 0 -12 44 3 53 19 5 9 17 12 34 8
19 -5 24 -3 21 6 -5 16 -13 18 -53 13z"/>
<path d="M7448 5303 c7 -3 16 -2 19 1 4 3 -2 6 -13 5 -11 0 -14 -3 -6 -6z"/>
<path d="M5776 4512 c-4 -17 -13 -36 -21 -42 -11 -9 -13 -41 -10 -148 3 -75 7
-234 10 -353 4 -206 9 -249 24 -249 4 0 7 75 7 168 0 92 3 193 7 225 4 37 2
57 -5 57 -6 0 -8 12 -4 33 8 38 8 30 0 137 -3 47 -1 105 5 129 5 25 6 52 2 60
-7 11 -10 6 -15 -17z"/>
<path d="M5776 3658 c-11 -34 -26 -141 -31 -213 -7 -110 -20 -231 -49 -485 -6
-47 -17 -105 -27 -130 -5 -14 -10 -45 -12 -70 -2 -25 -12 -84 -22 -133 l-19
-87 21 -21 21 -21 1 28 c0 16 1 47 2 69 0 35 2 37 9 15 8 -24 8 -24 9 -2 1 12
7 22 14 23 6 0 1 5 -13 10 -14 6 -20 13 -14 17 5 4 11 20 12 37 1 16 7 34 12
39 14 14 12 46 -2 46 -8 1 -5 8 7 18 12 10 19 26 17 40 -2 12 1 22 7 22 6 0
11 15 10 33 -1 79 4 157 11 157 4 0 8 10 7 23 0 12 3 58 7 102 5 44 8 100 7
124 -1 24 2 47 7 50 9 5 23 321 15 321 -2 0 -5 -6 -7 -12z"/>
<path d="M5607 2489 c-8 -13 -18 -42 -21 -64 -12 -72 -104 -381 -147 -490 -10
-28 -19 -56 -19 -64 0 -7 -6 -27 -14 -44 -8 -18 -20 -50 -26 -72 -12 -40 -74
-194 -91 -227 -13 -26 -11 -45 6 -45 8 0 15 4 15 9 0 4 9 17 20 28 11 11 20
29 20 40 0 11 5 19 12 17 6 -1 16 12 21 28 5 17 13 38 18 47 5 10 9 25 9 33 0
8 4 23 9 33 5 9 15 37 22 62 8 25 23 53 35 63 25 19 57 94 54 123 -1 11 -2 28
-1 39 1 17 3 18 12 5 8 -12 9 -10 4 7 -3 12 -1 24 5 28 5 3 10 21 10 39 0 17
5 37 12 44 15 15 19 92 5 110 -7 8 -5 12 7 12 9 0 17 8 17 18 1 9 2 24 3 32 1
8 4 20 9 27 4 6 3 23 -2 36 -7 19 -6 27 4 31 8 2 16 0 19 -7 2 -7 5 -3 6 8 7
72 6 86 -5 101 -11 16 -14 15 -28 -7z m-90 -551 c-3 -8 -6 -5 -6 6 -1 11 2 17
5 13 3 -3 4 -12 1 -19z"/>
<path d="M5147 1373 c-10 -9 -9 -43 1 -43 4 0 9 11 10 25 2 26 0 29 -11 18z"/>
<path d="M5041 1164 c0 -11 3 -14 6 -6 3 7 2 16 -1 19 -3 4 -6 -2 -5 -13z"/>
<path d="M3571 5811 c-15 -10 -8 -41 9 -41 15 0 25 29 14 40 -5 5 -15 5 -23 1z"/>
<path d="M2266 5515 c-3 -8 -1 -15 3 -15 5 0 11 7 15 15 3 8 1 15 -3 15 -5 0
-11 -7 -15 -15z"/>
<path d="M2396 2844 c-4 -10 -1 -14 6 -12 15 5 23 28 10 28 -5 0 -13 -7 -16
-16z"/>
<path d="M2375 2440 c3 -5 10 -10 16 -10 5 0 9 5 9 10 0 6 -7 10 -16 10 -8 0
-12 -4 -9 -10z"/>
<path d="M4727 829 c7 -7 15 -10 18 -7 3 3 -2 9 -12 12 -14 6 -15 5 -6 -5z"/>
<path d="M106 6381 c-4 -7 -5 -15 -2 -18 9 -9 19 4 14 18 -4 11 -6 11 -12 0z"/>
<path d="M168 6383 c7 -3 16 -2 19 1 4 3 -2 6 -13 5 -11 0 -14 -3 -6 -6z"/>
<path d="M0 6319 c0 -11 4 -17 10 -14 13 8 13 35 0 35 -5 0 -10 -9 -10 -21z"/>
<path d="M100 6310 c0 -5 5 -10 10 -10 6 0 10 5 10 10 0 6 -4 10 -10 10 -5 0
-10 -4 -10 -10z"/>
<path d="M190 6280 c0 -16 -7 -20 -35 -20 -25 0 -38 -5 -42 -17 -4 -10 -11
-21 -16 -24 -5 -4 9 -8 31 -11 22 -2 38 0 36 4 -3 5 -1 8 5 8 5 0 12 -6 14
-12 3 -7 6 1 6 19 1 17 6 35 11 38 6 3 10 13 10 21 0 8 -4 14 -10 14 -5 0 -10
-9 -10 -20z"/>
<path d="M239 6247 c-22 -17 -43 -57 -29 -57 5 0 10 8 10 17 0 30 24 -4 26
-36 2 -42 -26 -72 -79 -82 -35 -6 -53 -4 -76 7 -17 9 -31 20 -31 25 0 19 21
49 33 49 7 0 22 6 32 14 18 13 12 15 -53 18 l-72 3 0 -76 0 -76 60 -6 c32 -4
82 -2 111 3 41 8 61 7 99 -7 57 -20 75 -14 84 27 4 20 13 34 26 37 21 6 26 28
10 53 -6 9 -5 17 3 22 7 4 -5 5 -25 1 -31 -4 -38 -3 -38 11 0 9 -8 16 -21 16
-11 0 -17 -4 -14 -10 3 -5 -1 -10 -10 -10 -12 0 -13 4 -6 18 6 11 6 24 0 35
-12 20 -18 21 -40 4z"/>
<path d="M350 6200 c0 -5 5 -10 11 -10 5 0 7 5 4 10 -3 6 -8 10 -11 10 -2 0
-4 -4 -4 -10z"/>
<path d="M486 6181 c-19 -7 -18 -8 4 -14 26 -7 43 0 35 14 -7 10 -13 10 -39 0z"/>
<path d="M580 5600 c0 -11 5 -20 10 -20 6 0 10 9 10 20 0 11 -4 20 -10 20 -5
0 -10 -9 -10 -20z"/>
<path d="M392 5550 c0 -14 2 -19 5 -12 2 6 2 18 0 25 -3 6 -5 1 -5 -13z"/>
<path d="M164 5455 c10 -41 26 -56 26 -23 0 14 -7 32 -17 39 -15 13 -16 11 -9
-16z"/>
<path d="M100 5361 c0 -6 5 -13 10 -16 6 -3 10 1 10 9 0 9 -4 16 -10 16 -5 0
-10 -4 -10 -9z"/>
<path d="M295 5350 c-3 -5 1 -10 9 -10 9 0 16 5 16 10 0 6 -4 10 -9 10 -6 0
-13 -4 -16 -10z"/>
<path d="M180 5336 c0 -9 5 -16 10 -16 6 0 10 4 10 9 0 6 -4 13 -10 16 -5 3
-10 -1 -10 -9z"/>
<path d="M224 5305 c-8 -21 1 -29 19 -18 13 7 13 10 1 21 -12 11 -15 10 -20
-3z"/>
<path d="M17 5106 c-25 -19 -21 -26 8 -13 14 7 25 15 25 20 0 11 -13 8 -33 -7z"/>
<path d="M4050 4409 c0 -5 5 -7 10 -4 6 3 10 8 10 11 0 2 -4 4 -10 4 -5 0 -10
-5 -10 -11z"/>
<path d="M2845 3391 c-3 -5 -1 -12 5 -16 5 -3 10 1 10 9 0 18 -6 21 -15 7z"/>
<path d="M3640 990 c0 -5 5 -10 11 -10 5 0 7 5 4 10 -3 6 -8 10 -11 10 -2 0
-4 -4 -4 -10z"/>
</g>
</svg>
